<svg width="249" height="106" viewBox="0 0 249 106" fill="none" xmlns="http://www.w3.org/2000/svg">
<path d="M36.9609 105.477C29.7891 105.477 23.4375 103.836 17.9062 100.555C12.4219 97.2266 8.13281 92.4688 5.03906 86.2812C1.94531 80.0469 0.398438 72.6172 0.398438 63.9922V45.9922C0.398438 36.3359 2.13281 28.1094 5.60156 21.3125C9.11719 14.4688 13.9688 9.24219 20.1562 5.63281C26.3438 1.97656 33.4453 0.148438 41.4609 0.148438C45.3047 0.148438 48.8438 0.523437 52.0781 1.27344C55.3594 1.97656 58.6406 3.03125 61.9219 4.4375L58.3359 19.4141C55.8047 18.5234 53.1797 17.7734 50.4609 17.1641C47.7422 16.5547 44.9297 16.25 42.0234 16.25C35.2734 16.25 30.1406 18.4766 26.625 22.9297C23.1562 27.3828 21.3984 33.9453 21.3516 42.6172L21.5625 42.9688C23.8594 40.5781 26.7656 38.7031 30.2812 37.3438C33.8438 35.9844 37.7578 35.3047 42.0234 35.3047C48.1641 35.3047 53.4375 36.7812 57.8438 39.7344C62.25 42.6875 65.625 46.7656 67.9688 51.9688C70.3125 57.1719 71.4844 63.125 71.4844 69.8281C71.4844 76.7188 70.0078 82.8594 67.0547 88.25C64.1484 93.5938 60.0938 97.8125 54.8906 100.906C49.7344 103.953 43.7578 105.477 36.9609 105.477ZM36.5391 89.7266C39.4922 89.7266 42.0469 88.8359 44.2031 87.0547C46.3594 85.2734 48.0234 82.8594 49.1953 79.8125C50.3672 76.7188 50.9531 73.2969 50.9531 69.5469C50.9531 64.0625 49.5938 59.5859 46.875 56.1172C44.2031 52.6016 40.4062 50.8438 35.4844 50.8438C33.375 50.8438 31.3828 51.125 29.5078 51.6875C27.6328 52.25 25.9688 53.0469 24.5156 54.0781C23.0625 55.0625 21.8438 56.2578 20.8594 57.6641V64.4844C20.8594 72.5938 22.3125 78.8281 25.2188 83.1875C28.125 87.5469 31.8984 89.7266 36.5391 89.7266ZM112.969 105.477C106.734 105.477 101.016 104.328 95.8125 102.031C90.6562 99.6875 86.5547 96.3594 83.5078 92.0469C80.4609 87.7344 79.0078 82.5781 79.1484 76.5781L79.2891 76.2266L98.9766 75.2422C98.9766 79.7891 100.266 83.3516 102.844 85.9297C105.422 88.4609 108.797 89.7266 112.969 89.7266C117.75 89.7266 121.289 88.0156 123.586 84.5938C125.883 81.1719 127.031 76.7422 127.031 71.3047C127.031 65.3984 125.812 60.6641 123.375 57.1016C120.938 53.5391 117.305 51.7578 112.477 51.7578C108.586 51.7578 105.586 52.4844 103.477 53.9375C101.414 55.3906 99.9375 57.3594 99.0469 59.8438L80.9062 58.6484L86.8125 1.625H145.734V24.9688H133.078L131.25 18.0781H103.688L100.805 41.7031C102.07 40.7656 103.523 39.9453 105.164 39.2422C106.805 38.4922 108.562 37.9062 110.438 37.4844C112.359 37.0156 114.398 36.7812 116.555 36.7812C123.117 36.6875 128.695 38 133.289 40.7188C137.93 43.4375 141.445 47.375 143.836 52.5312C146.273 57.6875 147.492 63.8984 147.492 71.1641C147.492 77.7266 146.156 83.6094 143.484 88.8125C140.859 93.9688 136.969 98.0469 131.812 101.047C126.703 104 120.422 105.477 112.969 105.477ZM181.242 96.3359L171.258 91.0625L221.25 11.0469L231.234 16.3203L181.242 96.3359ZM226.031 105.406C221.344 105.406 217.312 104.492 213.938 102.664C210.609 100.789 208.055 98.2578 206.273 95.0703C204.492 91.8828 203.602 88.2969 203.602 84.3125V78.8984C203.602 74.9141 204.469 71.3281 206.203 68.1406C207.984 64.9531 210.539 62.4453 213.867 60.6172C217.242 58.7422 221.25 57.8047 225.891 57.8047C230.578 57.8047 234.562 58.7188 237.844 60.5469C241.172 62.375 243.727 64.8828 245.508 68.0703C247.289 71.2578 248.18 74.8672 248.18 78.8984V84.3125C248.18 88.3438 247.289 91.9531 245.508 95.1406C243.773 98.3281 241.266 100.836 237.984 102.664C234.703 104.492 230.719 105.406 226.031 105.406ZM226.031 94.0156C229.078 94.0156 231.258 93.125 232.57 91.3438C233.883 89.5625 234.539 87.2188 234.539 84.3125V78.8984C234.539 76.2266 233.789 73.9531 232.289 72.0781C230.789 70.1562 228.656 69.1953 225.891 69.1953C223.078 69.1953 220.922 70.1562 219.422 72.0781C217.969 73.9531 217.242 76.2266 217.242 78.8984V84.3125C217.242 86.9844 218.039 89.2812 219.633 91.2031C221.273 93.0781 223.406 94.0156 226.031 94.0156ZM177.023 47.75C172.383 47.75 168.375 46.8359 165 45.0078C161.672 43.1797 159.117 40.6953 157.336 37.5547C155.555 34.3672 154.664 30.7578 154.664 26.7266V21.3125C154.664 17.2812 155.531 13.6719 157.266 10.4844C159.047 7.29688 161.602 4.78906 164.93 2.96094C168.258 1.08594 172.242 0.148438 176.883 0.148438C181.617 0.148438 185.625 1.0625 188.906 2.89062C192.234 4.71875 194.766 7.22656 196.5 10.4141C198.281 13.6016 199.172 17.2344 199.172 21.3125V26.7266C199.172 30.7578 198.281 34.3672 196.5 37.5547C194.766 40.6953 192.258 43.1797 188.977 45.0078C185.695 46.8359 181.711 47.75 177.023 47.75ZM177.023 36.3594C179.742 36.3594 181.852 35.4453 183.352 33.6172C184.852 31.7422 185.602 29.4453 185.602 26.7266V21.3125C185.602 18.5938 184.828 16.2969 183.281 14.4219C181.781 12.5 179.648 11.5391 176.883 11.5391C174.117 11.5391 171.984 12.5 170.484 14.4219C169.031 16.2969 168.305 18.5938 168.305 21.3125V26.7266C168.305 29.4453 169.055 31.7422 170.555 33.6172C172.055 35.4453 174.211 36.3594 177.023 36.3594Z" fill="#1ED400"/>
</svg>
