<svg width="64" height="72" viewBox="0 0 64 72" fill="none" xmlns="http://www.w3.org/2000/svg">
<g opacity="0.85" clip-path="url(#clip0_1_162)">
<path d="M45.6035 45.153L45.6035 48.3877L51.0398 48.3877L51.0398 39.7575" fill="black"/>
<path d="M12.96 39.7575L12.96 48.3877L18.3964 48.3877L18.3964 45.153" fill="black"/>
<path d="M27.3914 15.9912L20.6353 8.39057C19.854 7.51167 20.5465 6.01345 21.6385 6.23325L30.5697 8.07093L33.4303 8.07093L42.3614 6.23325C43.4534 6.01345 44.1459 7.51167 43.3647 8.39057L36.6085 15.9912" fill="black"/>
<path d="M1.85423 28.7439C1.6031 28.4897 1.4086 28.2143 1.2641 27.9247C0.165601 25.714 2.14297 22.7409 4.54735 23.8356L26.8956 33.9912L37.103 33.9912L59.4512 23.8357C61.8555 22.7409 63.8392 25.7212 62.7345 27.9247C62.6026 28.2142 62.4018 28.4827 62.1506 28.7368L37.0968 53.5889L26.9021 53.5889L1.85423 28.7439Z" fill="#027FA5"/>
<path d="M1.85425 28.7438C1.60312 28.4896 1.40862 28.2142 1.26412 27.9245C1.84162 26.7098 3.116 25.9118 4.54737 26.5615L26.9017 36.7241L37.1029 36.7312L59.4575 26.5688C60.8825 25.9119 62.1631 26.7171 62.7344 27.9247C62.6025 28.2142 62.4017 28.4827 62.1505 28.7368L37.0968 53.5889L26.902 53.5889L1.85425 28.7438Z" fill="black"/>
<path d="M31.122 6.95246L29.1334 10.9575C27.6685 13.8939 26.8963 17.2098 26.8963 20.5755L26.8963 60.2565C26.8963 63.8614 27.765 66.6101 28.7857 68.5952C30.2213 71.3873 33.7792 71.3861 35.2123 68.5925C36.2305 66.6076 37.0969 63.86 37.0969 60.2565L37.0969 20.5756C37.0969 17.2099 36.3335 13.894 34.8685 10.9576L32.8799 6.9526L32.8799 6.94262" fill="black"/>
<path d="M33.3094 10.9576L32.4007 6.95219L32.4007 6.94516L32.8803 6.94235L32.8803 6.95234L34.868 10.9578C36.3333 13.894 37.0969 17.2094 37.0969 20.5758L37.0969 60.2561C37.0969 63.8596 36.2312 66.607 35.2127 68.5921C34.4958 69.9892 33.2463 70.6892 31.9982 70.6892C32.5687 70.6878 33.1378 69.9878 33.4659 68.5921C33.9317 66.6071 34.3279 63.8598 34.3279 60.2561L34.3279 20.5757C34.3279 17.2091 33.9783 13.8939 33.3094 10.9576Z" fill="#D5D8DB"/>
<path d="M31.9969 6.948L32.4008 6.94287L32.4008 6.94537L31.9969 6.948Z" fill="#D5D8DB"/>
<path d="M1.22477 29.5398L12.0134 40.242L12.0134 48.3877C12.0134 48.9758 12.4371 49.4527 12.96 49.4527L18.3963 49.4527C18.919 49.4527 19.3429 48.976 19.3429 48.3877L19.3429 47.5128L25.9495 54.0665L25.9495 60.2566C25.9495 63.5806 26.6438 66.596 28.0131 69.2192C28.8516 70.8253 30.341 71.7839 31.9983 71.7839C31.999 71.7839 32 71.7839 32.0006 71.7839C33.6584 71.7831 35.1479 70.8229 35.985 69.2156C37.3508 66.5932 38.0434 63.579 38.0434 60.2566L38.0434 54.0735L44.6569 47.5129L44.6569 48.3877C44.6569 48.9758 45.0806 49.4527 45.6035 49.4527L51.0399 49.4527C51.5626 49.4527 51.9865 48.976 51.9865 48.3877L51.9865 40.242L62.7749 29.5398C64.326 28.001 64.23 25.8732 63.447 24.4472C62.8616 23.3811 61.793 22.5258 60.4898 22.5259C60.0495 22.5259 59.5824 22.6237 59.0983 22.8436L54.4683 24.9481C53.9836 25.1684 53.7494 25.789 53.9453 26.3342C54.1411 26.8796 54.6928 27.143 55.1774 26.9226L59.8074 24.8181C60.7634 24.3836 61.4975 24.9496 61.8361 25.5663C62.1748 26.1829 62.2958 27.1753 61.5226 27.9421L38.043 51.2338L38.043 34.7108L51.3793 28.6492C51.8639 28.4288 52.0981 27.8082 51.9023 27.263C51.7064 26.7178 51.1548 26.4543 50.6701 26.6747L38.0434 32.4141L38.0434 20.5758C38.0434 19.1429 37.909 17.7181 37.6504 16.3254L44.034 9.1438C44.6888 8.4072 44.8341 7.33296 44.4044 6.40709C44.0358 5.61284 43.3451 5.14695 42.5776 5.14695C42.4505 5.14695 42.3213 5.15975 42.191 5.18604L33.894 6.89324C33.6383 6.54111 33.3113 6.26745 32.943 6.09477L32.943 1.32589C32.943 0.742717 32.5435 0.234355 32.0255 0.216777C31.4895 0.198779 31.0499 0.682246 31.0499 1.28131L31.0499 6.10123C30.6865 6.27476 30.3636 6.54645 30.1111 6.89436L21.8051 5.18521C21.6759 5.15919 21.5474 5.14639 21.421 5.14639C20.6555 5.14639 19.9643 5.61242 19.5955 6.40696C19.1659 7.33283 19.3113 8.40706 19.966 9.14366L26.3464 16.3216C26.0854 17.7174 25.9496 19.1434 25.9496 20.5755L25.9496 26.0937C25.9496 26.6818 26.3734 27.1587 26.8963 27.1587C27.419 27.1587 27.8429 26.682 27.8429 26.0937L27.8429 20.5755C27.8429 17.3993 28.5746 14.2538 29.9599 11.4768L31.0501 9.28118L31.0501 15.4463C31.0501 16.0295 31.4496 16.5379 31.9676 16.5554C32.5036 16.5734 32.9433 16.09 32.9433 15.491L32.9433 9.25785L34.0433 11.4786C35.4219 14.242 36.1504 17.3877 36.1504 20.5753L36.1504 60.2566C36.1504 63.1954 35.5453 65.8475 34.3519 68.1388C33.8579 69.0872 32.9786 69.6535 31.9999 69.654C31.9994 69.654 31.999 69.654 31.9985 69.654C31.0199 69.654 30.1404 69.0883 29.6456 68.1406C28.4493 65.8489 27.8428 63.1963 27.8428 60.2566L27.8428 31.0636C27.8428 30.4755 27.419 29.9986 26.8961 29.9986C26.3734 29.9986 25.9495 30.4753 25.9495 31.0636L25.9495 32.411L4.90139 22.8438C4.41714 22.6237 3.95026 22.526 3.50989 22.526C2.20689 22.526 1.13802 23.3812 0.552639 24.4472C-0.230358 25.8733 -0.326359 28.001 1.22477 29.5398ZM50.0934 47.3226L46.5501 47.3226L46.5501 45.6349L50.0934 42.1199L50.0934 47.3226ZM26.9194 13.9546L21.3046 7.63784C21.2786 7.60859 21.2095 7.53083 21.2736 7.3926C21.3378 7.25436 21.4351 7.27433 21.4681 7.2808L29.0954 8.85031L28.3079 10.4364C27.7471 11.5606 27.2839 12.7396 26.9194 13.9546ZM34.9079 8.84975L42.5279 7.28178C42.5645 7.27475 42.662 7.2545 42.726 7.39288C42.7903 7.53097 42.7211 7.60887 42.6951 7.63798L37.0798 13.9551C36.7166 12.7389 36.2545 11.5606 35.6953 10.4394L34.9079 8.84975ZM17.4498 47.3226L13.9066 47.3226L13.9066 42.1199L17.4498 45.6347L17.4498 47.3226ZM2.16327 25.5664C2.50189 24.9498 3.23639 24.3839 4.19201 24.8183L25.9495 34.7079L25.9495 51.2271L2.47676 27.9423C1.70364 27.1753 1.82464 26.183 2.16327 25.5664Z" fill="black"/>
<path d="M34.8067 64.0174C35.1763 63.6016 35.1763 62.9273 34.8067 62.5115C34.437 62.0956 33.8377 62.0956 33.468 62.5115C32.6567 63.4241 31.3367 63.4241 30.5256 62.5115C30.3407 62.3036 30.0983 62.1996 29.8562 62.1996C29.6141 62.1996 29.3717 62.3035 29.1868 62.5115C28.8172 62.9273 28.8172 63.6016 29.1868 64.0174C30.7362 65.7605 33.2571 65.7605 34.8067 64.0174Z" fill="black"/>
</g>
<defs>
<clipPath id="clip0_1_162">
<rect width="64" height="72" fill="white" transform="translate(64 72) rotate(180)"/>
</clipPath>
</defs>
</svg>
