<svg width="8" height="8" viewBox="0 0 8 8" fill="none" xmlns="http://www.w3.org/2000/svg">
<g clip-path="url(#clip0_0_146)">
<path d="M6.52475 2.09271L4.3166 4.30087C4.23199 4.38547 4.11954 4.43204 3.99996 4.43204C3.8804 4.43204 3.76795 4.3855 3.68338 4.30087L1.4752 2.09271C1.13766 1.75523 0.590581 1.75523 0.253106 2.09271C-0.0843687 2.43021 -0.0843687 2.97733 0.253106 3.31481L2.46129 5.52294C2.8723 5.93399 3.41873 6.16038 4 6.16038C4.58126 6.16038 5.12769 5.93399 5.53873 5.52298L7.74689 3.31482C8.08436 2.97734 8.08436 2.4302 7.74689 2.09272C7.40939 1.75523 6.8622 1.75523 6.52475 2.09271Z" fill="white"/>
</g>
<defs>
<clipPath id="clip0_0_146">
<rect width="8" height="8" fill="white"/>
</clipPath>
</defs>
</svg>
