<svg width="24" height="14" viewBox="0 0 24 14" fill="none" xmlns="http://www.w3.org/2000/svg">
<path d="M23.7861 12.3671C23.7216 12.2591 23.3226 11.392 21.4025 9.60991C19.3923 7.74377 19.6623 8.04679 22.0835 4.82005C23.5581 2.8549 24.1477 1.65481 23.9632 1.14178C23.7876 0.65274 22.7031 0.78175 22.7031 0.78175L19.0968 0.802751C19.0968 0.802751 18.8298 0.766749 18.6303 0.885258C18.4367 1.00227 18.3122 1.27229 18.3122 1.27229C18.3122 1.27229 17.7407 2.7934 16.9786 4.0865C15.372 6.8152 14.7285 6.95921 14.466 6.7897C13.8554 6.39517 14.0084 5.20258 14.0084 4.35652C14.0084 1.71182 14.409 0.609237 13.2269 0.324216C12.8338 0.229709 12.5458 0.166704 11.5422 0.156203C10.2551 0.142702 9.16457 0.160704 8.54802 0.462226C8.13699 0.663241 7.82047 1.11177 8.01398 1.13728C8.2525 1.16878 8.79254 1.28279 9.07906 1.67282C9.44959 2.17535 9.43609 3.30644 9.43609 3.30644C9.43609 3.30644 9.6491 6.41917 8.93955 6.8062C8.45201 7.07172 7.78447 6.53018 6.35186 4.05349C5.61831 2.7859 5.06327 1.3833 5.06327 1.3833C5.06327 1.3833 4.95676 1.12228 4.76624 0.982765C4.53523 0.813253 4.2112 0.759249 4.2112 0.759249L0.781953 0.78025C0.781953 0.78025 0.267415 0.795251 0.0784016 1.01877C-0.0896107 1.21828 0.0649007 1.62931 0.0649007 1.62931C0.0649007 1.62931 2.7501 7.91028 5.78932 11.077C8.57802 13.9797 11.7433 13.7892 11.7433 13.7892H13.1774C13.1774 13.7892 13.6109 13.7412 13.8314 13.5027C14.0354 13.2837 14.0279 12.8726 14.0279 12.8726C14.0279 12.8726 13.9994 10.948 14.8935 10.6645C15.7741 10.3855 16.9051 12.5246 18.1037 13.3482C19.0098 13.9707 19.6983 13.8342 19.6983 13.8342L22.9041 13.7892C22.9041 13.7892 24.5812 13.6857 23.7861 12.3671Z" fill="white"/>
</svg>
