<svg width="144" height="144" viewBox="0 0 144 144" fill="none" xmlns="http://www.w3.org/2000/svg">
<g clip-path="url(#clip0_0_58)">
<path d="M142.136 68.9962L141.805 68.1437C140.712 65.3191 138.049 63.4938 135.02 63.4938H119.879C116.701 58.1804 110.9 54.8344 104.631 54.8344H101.47V47.7075H104.777C106.679 47.7075 108.422 46.7484 109.441 45.1425C110.46 43.5365 110.584 41.5504 109.773 39.8299L106.346 32.5565C106.002 15.8865 92.3354 2.43121 75.5841 2.43121H68.4187C51.6675 2.43121 38.0012 15.8862 37.6561 32.5562L34.2294 39.8299C33.4188 41.5504 33.5428 43.5365 34.5618 45.1425C35.5805 46.7484 37.324 47.7075 39.2261 47.7075H42.5322V54.8344H39.3718C33.101 54.8344 27.2991 58.1818 24.1232 63.4938H8.93175C5.95359 63.4938 3.3073 65.2795 2.19243 68.0363L2.01186 68.4801C-0.670702 75.1165 -0.670702 82.4259 2.01186 89.0631L2.18989 89.5027C3.30674 92.2643 5.95302 94.0488 8.93203 94.0488H21.615V95.9619C18.5502 101.713 16.9291 108.168 16.9291 114.686V132.287C16.9291 137.405 21.093 141.569 26.2109 141.569H43.9069H100.095H117.791C122.909 141.569 127.073 137.405 127.073 132.287V114.686C127.073 108.168 125.452 101.713 122.387 95.9619V94.0488H135.121C136.554 94.0488 137.943 93.6306 139.138 92.8395C140.332 92.0497 141.258 90.9326 141.818 89.6087C144.614 83.0072 144.727 75.6877 142.136 68.9962ZM101.471 63.7095V60.4585H104.631C109.338 60.4585 113.659 63.2182 115.642 67.4935C116.386 69.0904 116.763 70.8052 116.763 72.5906V87.9584C112.178 82.8942 105.869 78.6352 99.1394 76.9232C98.9347 76.8709 98.7291 76.8208 98.5229 76.7728C100.042 73.573 101.002 70.1108 101.333 66.58C101.425 65.6473 101.471 64.6815 101.471 63.7095ZM39.3844 42.0833L42.2433 36.0148H70.3956C71.9487 36.0148 73.2078 34.7556 73.2078 33.2026V33.2023C73.2076 31.6495 71.9487 30.3906 70.3959 30.3906H43.4299C44.8322 17.8432 55.5031 8.05538 68.4187 8.05538H75.5841C88.4997 8.05538 99.1703 17.8432 100.573 30.3906H92.9848C91.4317 30.3906 90.1729 31.6495 90.1729 33.2023V33.2026C90.1729 34.7556 91.4317 36.0148 92.9851 36.0148H101.76L104.618 42.0833H98.659H45.3441H39.3844ZM95.8463 47.7075V57.6463V63.7092C95.8463 64.499 95.8088 65.2806 95.7343 66.0428C95.356 70.07 93.9816 73.9788 91.7557 77.3524C89.7949 80.3401 87.2653 82.8191 84.236 84.7209C83.0747 85.451 81.8602 86.067 80.6095 86.5687C79.7182 86.9262 78.8087 87.226 77.8862 87.4679C73.8896 88.5155 69.6582 88.4756 65.6791 87.3486C63.6169 86.7645 61.6229 85.8881 59.7644 84.7198C59.0438 84.2675 58.3536 83.7801 57.6904 83.2632C55.5664 81.6072 53.738 79.6258 52.2367 77.3383C51.893 76.8211 51.5617 76.2747 51.2512 75.7116C49.5893 72.7036 48.5852 69.4515 48.2666 66.0312C48.1932 65.2817 48.1558 64.5004 48.1558 63.7092V57.6463V47.7075H95.8463ZM27.2572 71.9246C27.3396 70.3782 27.71 68.8901 28.3625 67.4892C30.3436 63.2182 34.665 60.4585 39.372 60.4585H42.5324V63.7095C42.5324 64.6832 42.5788 65.649 42.6688 66.5673C43.001 70.1296 43.9438 73.5538 45.4752 76.7699C39.0275 78.2648 33.0639 82.0113 28.4306 86.7017C28.3858 86.747 28.342 86.7934 28.2975 86.8387C27.9502 87.1939 27.6079 87.5548 27.2732 87.9238C27.2622 87.9356 27.2507 87.9468 27.24 87.9589V72.5906H27.2395C27.2395 72.3675 27.2454 72.1453 27.2572 71.9246ZM21.8951 69.4515C21.8729 69.5761 21.8501 69.7004 21.8307 69.8256C21.802 70.0101 21.7784 70.196 21.7554 70.3819C21.7407 70.5009 21.7241 70.6193 21.7118 70.7388C21.6907 70.9441 21.676 71.1506 21.662 71.3573C21.6552 71.4585 21.6451 71.5592 21.64 71.6607C21.6243 71.9693 21.6153 72.2792 21.6153 72.5908V88.425H8.93175C8.25646 88.425 7.65684 88.0205 7.40371 87.3945L7.22596 86.9554C5.09268 81.678 5.09268 75.8654 7.22315 70.5954L7.40371 70.1518C7.65768 69.5241 8.25731 69.1185 8.93175 69.1185H21.9525C21.9309 69.229 21.9148 69.3407 21.8951 69.4515ZM117.791 135.945H102.908V121.069C102.908 119.516 101.649 118.257 100.095 118.257C98.542 118.257 97.2832 119.516 97.2832 121.069V135.945H46.7194V121.069C46.7194 119.516 45.4605 118.257 43.9072 118.257C42.3538 118.257 41.095 119.516 41.095 121.069V135.945H26.2112C24.1944 135.945 22.5535 134.304 22.5535 132.287V114.686C22.5535 108.874 24.0506 103.117 26.8825 98.0395C27.0336 97.769 27.1874 97.502 27.3385 97.2455C28.2227 95.7586 29.2186 94.3374 30.3006 93.0197C34.6895 87.6661 41.2288 83.0474 48.5619 81.8952C50.8051 84.9183 53.5608 87.4656 56.7733 89.4822C66.0244 95.2982 77.979 95.2982 87.2287 89.4833C90.4415 87.4662 93.1972 84.9192 95.4401 81.8966C96.2181 82.0195 96.9904 82.1789 97.7506 82.373C103.91 83.9404 109.685 88.1187 113.703 93.02C114.023 93.4104 114.335 93.8089 114.639 94.2142C115.548 95.4309 116.38 96.7117 117.119 98.0378C119.952 103.117 121.449 108.874 121.449 114.686V132.287C121.449 134.304 119.808 135.945 117.791 135.945ZM136.64 87.4164C136.639 87.4167 136.639 87.4172 136.639 87.4178C136.512 87.719 136.303 87.9719 136.034 88.1496C135.762 88.3296 135.447 88.4247 135.121 88.4247H122.388V72.5906C122.388 72.2789 122.379 71.969 122.363 71.6602C122.358 71.5581 122.348 71.4571 122.341 71.3556C122.327 71.1494 122.312 70.9436 122.291 70.7388C122.278 70.6176 122.262 70.4975 122.247 70.3768C122.224 70.1932 122.201 70.0098 122.172 69.8276C122.152 69.6993 122.129 69.5716 122.106 69.4439C122.087 69.3354 122.071 69.226 122.05 69.1177H135.02C135.707 69.1177 136.312 69.5314 136.561 70.1755L136.892 71.0291C138.952 76.3481 138.862 82.1677 136.64 87.4164Z" fill="#333333"/>
<path d="M84.4462 32.6537C84.2847 31.7922 83.6739 30.9791 82.7646 30.6065C82.5959 30.5361 82.4187 30.4827 82.2387 30.4461C80.9607 30.1888 79.6144 30.8599 79.0949 32.128C78.7276 33.0089 78.8367 34.0088 79.3536 34.7631C79.8304 35.4915 80.7053 36.0144 81.6905 36.0144C81.8733 36.0144 82.059 35.995 82.2387 35.9584C82.4187 35.9247 82.5959 35.8684 82.7646 35.7981C83.6635 35.4297 84.2802 34.6244 84.4462 33.754C84.4827 33.5714 84.5024 33.3861 84.5024 33.2035V33.2033V33.2019C84.5024 33.0193 84.4827 32.8337 84.4462 32.6537Z" fill="#333333"/>
<path d="M80.3863 71.9681C79.4155 70.7553 77.6458 70.559 76.4336 71.5302C73.8233 73.6196 70.1769 73.6196 67.5666 71.5302C66.3536 70.5593 64.5842 70.7556 63.6139 71.9681C62.6436 73.1808 62.8396 74.9505 64.0521 75.9208C66.3921 77.7939 69.1962 78.7305 72.0003 78.7305C74.8043 78.7305 77.6087 77.7939 79.9484 75.9208C81.1609 74.9502 81.3569 73.1806 80.3863 71.9681Z" fill="#333333"/>
</g>
<defs>
<clipPath id="clip0_0_58">
<rect width="144" height="144" fill="white"/>
</clipPath>
</defs>
</svg>
