<svg width="8" height="6" viewBox="0 0 8 6" fill="none" xmlns="http://www.w3.org/2000/svg">
<path d="M6.52475 1.09271L4.3166 3.30087C4.23199 3.38547 4.11954 3.43204 3.99996 3.43204C3.8804 3.43204 3.76795 3.3855 3.68338 3.30087L1.4752 1.09271C1.13766 0.755231 0.590581 0.755231 0.253106 1.09271C-0.0843687 1.43021 -0.0843687 1.97733 0.253106 2.31481L2.46129 4.52294C2.8723 4.93399 3.41873 5.16038 4 5.16038C4.58126 5.16038 5.12769 4.93399 5.53873 4.52298L7.74689 2.31482C8.08436 1.97734 8.08436 1.4302 7.74689 1.09272C7.40939 0.755231 6.8622 0.755231 6.52475 1.09271Z" fill="white"/>
</svg>
