<svg width="24" height="24" viewBox="0 0 24 24" fill="none" xmlns="http://www.w3.org/2000/svg">
<g clip-path="url(#clip0_1_158)">
<path d="M23.7862 17.3671C23.7217 17.2591 23.3227 16.392 21.4025 14.6099C19.3924 12.7438 19.6624 13.0468 22.0836 9.82005C23.5582 7.8549 24.1477 6.65481 23.9632 6.14178C23.7877 5.65274 22.7031 5.78175 22.7031 5.78175L19.0969 5.80275C19.0969 5.80275 18.8298 5.76675 18.6303 5.88526C18.4368 6.00227 18.3123 6.27229 18.3123 6.27229C18.3123 6.27229 17.7408 7.7934 16.9787 9.0865C15.3721 11.8152 14.7285 11.9592 14.466 11.7897C13.8555 11.3952 14.0085 10.2026 14.0085 9.35652C14.0085 6.71182 14.409 5.60924 13.2269 5.32422C12.8339 5.22971 12.5459 5.1667 11.5423 5.1562C10.2552 5.1427 9.16463 5.1607 8.54808 5.46223C8.13705 5.66324 7.82053 6.11177 8.01404 6.13728C8.25256 6.16878 8.7926 6.28279 9.07912 6.67282C9.44965 7.17535 9.43615 8.30644 9.43615 8.30644C9.43615 8.30644 9.64916 11.4192 8.93961 11.8062C8.45208 12.0717 7.78453 11.5302 6.35192 9.05349C5.61837 7.7859 5.06333 6.3833 5.06333 6.3833C5.06333 6.3833 4.95682 6.12228 4.76631 5.98277C4.53529 5.81325 4.21127 5.75925 4.21127 5.75925L0.782014 5.78025C0.782014 5.78025 0.267477 5.79525 0.0784627 6.01877C-0.0895496 6.21828 0.0649617 6.62931 0.0649617 6.62931C0.0649617 6.62931 2.75016 12.9103 5.78938 16.077C8.57809 18.9797 11.7433 18.7892 11.7433 18.7892H13.1774C13.1774 18.7892 13.611 18.7412 13.8315 18.5027C14.0355 18.2837 14.028 17.8726 14.028 17.8726C14.028 17.8726 13.9995 15.948 14.8935 15.6645C15.7741 15.3855 16.9052 17.5246 18.1038 18.3482C19.0099 18.9707 19.6984 18.8342 19.6984 18.8342L22.9041 18.7892C22.9041 18.7892 24.5813 18.6857 23.7862 17.3671Z" fill="white"/>
</g>
<defs>
<clipPath id="clip0_1_158">
<rect width="24" height="24" fill="white"/>
</clipPath>
</defs>
</svg>
